<?xml version="1.0" encoding="UTF-8"?>
<svg width="100px" height="98px" viewBox="0 0 100 98" version="1.1" xmlns="http://www.w3.org/2000/svg" xmlns:xlink="http://www.w3.org/1999/xlink">
    <!-- Generator: Sketch 46.2 (44496) - http://www.bohemiancoding.com/sketch -->
    <title>Concession_i_Centrelink</title>
    <desc>Created with Sketch.</desc>
    <defs></defs>
    <g id="Page-1" stroke="none" stroke-width="1" fill="none" fill-rule="evenodd">
        <g id="AB_Concession" transform="translate(-462.000000, -111.000000)" fill="#C23734">
            <g id="Concession_Body" transform="translate(0.000000, 61.000000)">
                <path d="M531.847518,141.328664 L532,143 C532.30915,143.766115 532.30915,145.326882 530.9885,145.927178 L528.10709,147.367886 C526.18614,148.208299 525.10561,147.367886 523.6649,145.807119 L511.89912,132.72068 L500.13333,145.807119 C498.69262,147.367886 497.61209,148.208299 495.69115,147.367886 L488.246883,143.758546 C488.196371,143.810893 488.116718,143.887599 488,144 C488,144 488.151619,143.85399 488.228283,143.749528 L487.76725,143.525997 L484.88583,142.085288 C482.96489,141.124816 482.96489,139.804166 483.32506,137.6431 L486.32654,120.23454 L488.84778,120.3546 C489.306708,120.380096 489.825194,120.400178 490.364145,120.451639 C489.826494,120.371425 489.307283,120.311125 488.84778,120.23454 L468.67786,119.15401 C466.516797,118.91389 465.316207,118.67377 464.715911,116.63277 L462.794967,108.10858 L462.074612,104.98704 C461.714435,102.94604 462.674908,102.10563 464.595852,101.02509 L479.960262,92.5026463 L469.758391,78.09382 C468.557801,76.41299 467.957506,75.2124 469.038037,73.41151 L474.56075,66.56815 L476.60176,64.04691 C477.92241,62.48614 479.24306,62.72626 481.28406,63.56667 L497.61209,70.28998 L502.53451,53.36165 C503.25487,51.32065 503.7351,50.12006 505.89616,50 L514.66047,50 L517.90207,50 C520.06313,50.12006 520.66343,51.32065 521.26372,53.36165 L526.18614,70.28998 L523.90502,71.25045 C521.98408,71.97081 519.10266,73.29145 516.9416,71.01033 C519.10266,73.29145 521.98408,71.97081 523.90502,71.25045 L542.51417,63.56667 C544.55518,62.72626 545.87583,62.48614 547.19648,64.04691 L552.59913,70.89027 C552.1189,70.41004 551.63866,70.16992 551.03837,70.16992 C551.63866,70.16992 552.1189,70.41004 552.59913,70.89027 L554.64014,73.41151 C555.84073,75.09234 555.24043,76.29293 554.03984,78.09382 L543.83482,92.5009 L559,101 C561.24338,102.10563 562.2039,102.94604 561.96374,105.22716 L560.04279,113.75135 L559.32244,116.87289 C558.8422,118.91389 557.52155,119.27407 555.36049,119.39413 L537.71181,120.3546 L537.23158,117.83336 C536.99146,115.79236 536.2711,112.79088 539.03246,111.11005 C536.2711,112.79088 536.99146,115.79236 537.23158,117.83336 L540.59323,137.76316 C540.95341,139.924225 540.95341,141.244875 539.03246,142.205347 L531.10856,146.047237 C532.30915,145.446941 532.30915,143.886174 532.1891,143.16582 L531.847518,141.328664 Z M531.80412,141.095253 L527.74691,119.27407 C527.14662,116.27259 528.58732,113.15106 531.46874,111.71035 C532.30915,111.23011 533.26963,110.99 534.11004,110.99 C534.11004,110.99 538.07199,110.86994 539.5127,110.74988 C539.63276,110.74988 551.75872,110.26964 556.56108,110.02952 L536.99146,99.46433 C534.2301,98.14368 532.66933,95.02214 533.38969,91.90061 C533.50974,90.94013 533.98998,90.09972 534.47022,89.37937 C534.47022,89.37937 536.75134,86.25783 537.59175,85.05724 C536.8714,88.05872 538.9124,89.61949 540.71329,90.70002 C538.9124,89.61949 536.75134,88.17878 537.59175,85.05724 C537.71181,84.93718 544.91535,75.2124 547.91683,71.25045 L527.38673,80.13482 C524.62538,81.45547 521.26372,80.73512 519.22272,78.21388 C518.50236,77.37346 518.14219,76.53305 517.90207,75.69264 C517.90207,75.69264 516.82154,71.97081 516.46136,70.5301 C516.46136,70.41004 513.33982,58.76431 512.01918,54.08201 L512.49941,52.16106 C512.61947,51.80089 512.85959,51.32065 513.21977,50.84041 C512.85959,51.32065 512.61947,51.80089 512.49941,52.16106 L506.13628,75.57258 C505.41593,78.57405 502.77463,80.73512 499.53303,80.73512 C498.4525,80.73512 497.61209,80.61506 496.77168,80.25488 C496.77168,80.25488 493.16991,78.69411 491.84926,78.09382 C491.60914,77.97376 480.56371,73.1714 476.12152,71.25045 L489.32802,89.25931 C491.1289,91.66049 491.24896,95.1422 489.20796,97.66344 C488.4876,98.50385 487.76725,99.10415 487.04689,99.46433 C487.04689,99.46433 483.68524,101.26521 482.36459,101.98557 C482.24453,102.10563 471.559277,107.7484 467.237151,110.02952 L489.56813,110.99 C492.56961,110.99 495.33097,113.15106 496.05132,116.27259 C496.29144,117.23307 496.29144,118.19354 496.17138,119.03395 C496.17138,119.03395 495.549204,122.352242 495.099262,123.723404 C495.141662,123.874017 495.178996,124.031601 495.21091,124.19649 C495.21091,124.31655 492.92979,136.20239 492.08937,141.004757 L490.76872,142.565524 C490.28849,142.925701 489.56813,143.646056 488.72772,143.646056 C489.56813,143.646056 490.40855,142.925701 490.76872,142.565524 L506.61652,124.19649 C508.65752,121.79531 512.01918,120.9549 514.90059,122.3956 C515.86106,122.87584 516.58142,123.47614 517.18171,124.07643 C517.18171,124.07643 519.70295,127.07791 520.66343,128.15844 C520.783173,128.278183 528.665634,137.354919 531.80412,141.095253 Z M483.449564,99.2015944 C483.431606,97.4230939 482.204456,95.8224449 481.40412,94.54191 C482.216263,95.7601217 483.467908,97.3629006 483.449564,99.2015944 Z" id="Concession_i_Centrelink"></path>
            </g>
        </g>
    </g>
</svg>