<?xml version="1.0" encoding="UTF-8"?>
<svg width="60px" height="60px" viewBox="0 0 60 60" version="1.1" xmlns="http://www.w3.org/2000/svg" xmlns:xlink="http://www.w3.org/1999/xlink">
    <!-- Generator: Sketch 46.2 (44496) - http://www.bohemiancoding.com/sketch -->
    <title>Contact_i_Email</title>
    <desc>Created with Sketch.</desc>
    <defs></defs>
    <g id="Page-1" stroke="none" stroke-width="1" fill="none" fill-rule="evenodd">
        <g id="AB_Contact" transform="translate(-202.000000, -320.000000)" fill="#C23734">
            <g id="Contact_Body" transform="translate(0.000000, 60.000000)">
                <path d="M232.139195,260 L232.000041,260 C224.020471,260 216.366582,263.178691 210.737936,268.836555 C205.105728,274.494418 201.963662,282.15912 202.000317,290.138972 C202.07355,306.603041 215.883497,319.999667 232.775996,319.999667 L233.874632,319.999667 C235.947312,319.999667 237.624562,318.322355 237.624562,316.249737 C237.624562,314.176963 235.947312,312.499806 233.874632,312.499806 L232.775996,312.499806 C219.999045,312.499806 209.554552,302.450931 209.500178,290.10241 C209.474538,284.118615 211.832916,278.368878 216.055244,274.124894 C220.277572,269.884191 226.015996,267.500173 231.999948,267.500173 L232.102477,267.500173 C244.450998,267.555172 254.499874,277.999041 254.499874,290.775991 L254.499874,299.374581 C254.499874,301.447199 252.822624,303.124512 250.749943,303.124512 C248.677263,303.124512 247.000013,301.447199 247.000013,299.374581 L247.000013,289.999755 C247.014669,285.513745 245.026143,281.254762 241.580239,278.383409 C238.130584,275.515962 233.582387,274.333171 229.173594,275.160812 C224.764801,275.988453 220.955996,278.742308 218.784412,282.668017 C216.616483,286.593725 216.308895,291.284732 217.95313,295.459967 C219.593725,299.634577 223.014036,302.857173 227.280332,304.25246 C231.542972,305.643996 236.204698,305.06182 239.998221,302.666864 C241.631503,307.984109 246.912155,311.309204 252.412366,310.485156 C257.91642,309.661265 261.9925,304.937134 262,299.374113 L262,290.775679 C262,273.882242 248.604311,260.073124 232.139304,260 L232.139195,260 Z M232.000041,297.499304 C228.967848,297.499304 226.232367,295.671994 225.071483,292.870483 C223.910598,290.065379 224.551461,286.842783 226.697452,284.696729 C228.843428,282.550831 232.06604,281.909906 234.871176,283.070822 C237.672655,284.231738 239.499996,286.967156 239.499996,289.999287 C239.499996,291.987844 238.708995,293.895777 237.302724,295.302001 C235.896453,296.708225 233.988536,297.499147 232.000135,297.499147 L232.000041,297.499304 Z" id="Contact_i_Email"></path>
            </g>
        </g>
    </g>
</svg>