<?xml version="1.0" encoding="UTF-8"?>
<svg width="60px" height="60px" viewBox="0 0 60 60" version="1.1" xmlns="http://www.w3.org/2000/svg" xmlns:xlink="http://www.w3.org/1999/xlink">
    <!-- Generator: Sketch 46.2 (44496) - http://www.bohemiancoding.com/sketch -->
    <title>Contact_i_Phone</title>
    <desc>Created with Sketch.</desc>
    <defs></defs>
    <g id="Page-1" stroke="none" stroke-width="1" fill="none" fill-rule="evenodd">
        <g id="AB_Contact" transform="translate(-202.000000, -400.000000)" fill="#C23734">
            <g id="Contact_Body" transform="translate(0.000000, 60.000000)">
                <path d="M211.461141,340.055362 C211.046226,339.971079 210.547001,339.971079 210.216397,340.139645 C205.736646,341.883614 202.913234,348.272637 202.248707,352.671728 C200.174133,366.943964 211.461473,379.310912 221.83434,387.439921 C231.047106,394.658773 248.719153,406.52599 259.176664,395.073687 C260.505718,393.663641 262.081066,391.589068 261.996756,389.514494 C261.747157,386.029875 258.512136,383.540386 256.022648,381.631115 C254.113376,380.221069 250.129531,376.321534 247.639711,376.402526 C245.399836,376.486795 243.98979,378.807703 242.576424,380.221069 L240.086936,382.710557 C239.672021,383.125472 234.362441,379.640852 233.778905,379.225937 C231.620021,377.815891 229.545447,376.237224 227.720486,374.496574 C225.895525,372.752604 224.235867,370.846652 222.82582,368.85307 C222.410906,368.272825 219.007277,363.209566 219.341201,362.794651 C219.341201,362.794651 222.245604,359.640636 223.075433,358.395892 C224.819403,355.741101 226.145138,353.666528 224.154875,350.512512 C223.409329,349.352079 222.495216,348.437939 221.500085,347.442807 C219.756116,345.783148 218.015465,344.039179 216.021883,342.629133 C214.945677,341.796067 213.120717,340.304947 211.461058,340.055334 L211.461141,340.055362 Z" id="Contact_i_Phone"></path>
            </g>
        </g>
    </g>
</svg>