<?xml version="1.0" encoding="UTF-8"?>
<svg width="100px" height="91px" viewBox="0 0 100 91" version="1.1" xmlns="http://www.w3.org/2000/svg" xmlns:xlink="http://www.w3.org/1999/xlink">
    <!-- Generator: Sketch 46.2 (44496) - http://www.bohemiancoding.com/sketch -->
    <title>Employment_i_Breifcase</title>
    <desc>Created with Sketch.</desc>
    <defs></defs>
    <g id="Page-1" stroke="none" stroke-width="1" fill="none" fill-rule="evenodd">
        <g id="AB_Employment" transform="translate(-462.000000, -95.000000)" fill="#C23734">
            <g id="Employment_Body" transform="translate(0.000000, 61.000000)">
                <path d="M474.413793,124.345103 L549.586207,124.345103 C556.482759,124.345103 562,118.827862 562,111.93131 L562,61.8609655 C562,54.9644138 556.482759,49.4471724 549.586207,49.4471724 L533.724138,49.4471724 L533.724138,45.0344828 C533.724138,38.9677241 528.756414,34 522.689655,34 L501.451034,34 C495.384276,34 490.416552,38.9677241 490.416552,45.0344828 L490.416552,49.4471724 L474.413793,49.4471724 C467.517241,49.4471724 462,54.9644138 462,61.8609655 L462,111.93131 C462,118.687724 467.657379,124.345103 474.413793,124.345103 Z M549.726897,113.864828 L474.413793,113.864828 C473.584055,113.864828 473.034483,113.315255 473.034483,112.485517 L473.034483,82.2758621 L550.965517,82.2758621 L550.965517,112.48 C551.1056,113.175048 550.415945,113.86469 549.72629,113.86469 L549.726897,113.864828 Z M500.62069,45.0344828 L522,45.0344828 L522,49.4471724 L500.62069,49.4471724 L500.62069,45.0344828 Z M474.413793,60.2068966 L549.586207,60.2068966 C550.415945,60.2068966 550.965517,60.756469 550.965517,61.5862069 L550.965517,70.4115862 L473.034483,70.4115862 L473.034483,61.5862069 C473.034483,60.756469 473.724138,60.2068966 474.413793,60.2068966 Z" id="Employment_i_Breifcase"></path>
            </g>
        </g>
    </g>
</svg>