<?xml version="1.0" encoding="UTF-8"?>
<svg width="140px" height="140px" viewBox="0 0 140 140" version="1.1" xmlns="http://www.w3.org/2000/svg" xmlns:xlink="http://www.w3.org/1999/xlink">
    <!-- Generator: Sketch 46.2 (44496) - http://www.bohemiancoding.com/sketch -->
    <title>Help_i_Buoy</title>
    <desc>Created with Sketch.</desc>
    <defs></defs>
    <g id="Page-1" stroke="none" stroke-width="1" fill="none" fill-rule="evenodd">
        <g id="AB_Help" transform="translate(-442.000000, -100.000000)" fill-rule="nonzero" fill="#C23734">
            <g id="Help_Body" transform="translate(0.000000, 61.000000)">
                <path d="M512,39 C493.435106,39 475.632766,46.3769574 462.502553,59.5025532 C449.377553,72.6333617 442,90.4365957 442,109 C442,127.563404 449.376957,145.367234 462.502553,158.497447 C475.633362,171.622447 493.436596,179 512,179 C530.563404,179 548.367234,171.623043 561.497447,158.497447 C574.622447,145.366638 582,127.563404 582,109 C581.982546,90.4410638 574.59966,72.6506383 561.475106,59.5248936 C548.350553,46.3991489 530.558936,39.016383 512,39 Z M558.484468,74.21 L545.661957,87.0325106 C542.369128,81.9884894 537.994128,77.735617 532.851064,74.5939574 L545.73166,61.7133617 C550.595319,65.2041277 554.89466,69.4161915 558.484319,74.21 L558.484468,74.21 Z M570.085255,109 C570.091073,117.121638 568.380681,125.156596 565.064468,132.573617 L551.049277,118.558426 L551.049277,118.564243 C552.660766,112.019243 552.591064,105.177413 550.857283,98.6619026 L564.767623,84.7515621 C568.275815,92.3554983 570.0909,100.628158 570.085091,108.99986 L570.085255,109 Z M512.000149,137.297872 C504.495106,137.297872 497.298511,134.319149 491.992064,129.007489 C486.680404,123.701638 483.701681,116.505043 483.701681,108.999404 C483.701681,101.493766 486.680404,94.297766 491.992064,88.9913191 C497.297915,83.6796596 504.494511,80.7009362 512.000149,80.7009362 C519.505787,80.7009362 526.701787,83.6796596 532.008234,88.9913191 C537.319894,94.2971702 540.298617,101.493766 540.298617,108.999404 C540.298617,116.505043 537.319894,123.701043 532.008234,129.007489 C526.702383,134.319149 519.505787,137.297872 512.000149,137.297872 Z M453.915043,109 C453.909225,100.878362 455.619617,92.8434043 458.93583,85.426383 L472.951021,99.4415745 L472.951021,99.435757 C471.467483,105.457246 471.409234,111.740417 472.770674,117.784693 L458.639164,131.916204 L458.639164,131.922021 C455.51493,124.684617 453.909249,116.882447 453.915057,108.999255 L453.915043,109 Z M534.922915,55.6391489 L520.785596,69.7706596 C514.740872,68.4092936 508.457702,68.4674681 502.43666,69.9510064 L488.421468,55.9358149 L488.427286,55.9358149 C503.204583,49.3441979 520.058349,49.2394957 534.923669,55.6391043 L534.922915,55.6391489 Z M477.74483,62.1144468 L490.596383,74.966 C485.499936,78.1891277 481.188979,82.5000851 477.965851,87.5965319 L465.114298,74.7449787 C468.651532,69.9161702 472.916021,65.6516809 477.74483,62.1144468 Z M464.73034,142.691894 L477.593511,129.851957 C480.729362,135.006489 484.970468,139.399064 490.014489,142.703511 L477.191979,155.526021 C472.403979,151.913128 468.203383,147.584745 464.730191,142.691894 L464.73034,142.691894 Z M487.769277,161.769128 L501.679617,147.858787 C508.189766,149.592553 515.031447,149.662255 521.576,148.050781 L535.591191,162.065972 C520.355021,168.861185 502.929489,168.756483 487.779702,161.769262 L487.769277,161.769128 Z M546.244596,155.811681 L533.393043,142.960128 L533.387225,142.960128 C538.483672,139.742809 542.800438,135.426043 546.017757,130.329596 L558.886736,143.256809 C555.349502,148.085617 551.085012,152.350106 546.256204,155.88734 L546.244596,155.811681 Z" id="Help_i_Buoy"></path>
            </g>
        </g>
    </g>
</svg>