<?xml version="1.0" encoding="UTF-8"?>
<svg width="75px" height="78px" viewBox="0 0 75 78" version="1.1" xmlns="http://www.w3.org/2000/svg" xmlns:xlink="http://www.w3.org/1999/xlink">
    <!-- Generator: Sketch 46.2 (44496) - http://www.bohemiancoding.com/sketch -->
    <title>Interp_i_Language</title>
    <desc>Created with Sketch.</desc>
    <defs></defs>
    <g id="Page-1" stroke="none" stroke-width="1" fill="none" fill-rule="evenodd">
        <g id="AB_Interpreter" transform="translate(-475.000000, -131.000000)" fill="#C23734">
            <g id="Interp_body" transform="translate(0.000000, 61.000000)">
                <path d="M485,98 C485,100 486.25,100.75 487.5,100.5 C489.25,100.5 491.25,99.5 493,98 C492.5,96 492,93.25 492,90 C488,92 485,94.75 485,98 Z M494,88.75 C494,91.5 494.25,93.75 494.75,95.75 C497,93.75 498.75,91 500,88 C499.5,88 496.75,88 494,88.75 Z M524.5,120 L532,120 L533.5,125 L539.5,125 L531.75,100 L524.5,100 L517,125 L522.75,125 L524.5,120 Z M527.25,109.75 C527.75,108.25 528.25,106.5 528.75,105 C529.25,106.5 529.75,108.25 530.5,109.75 L532.5,115 L525,115 L527.25,109.75 Z M517.5,92.5 L517.5,70 L475,70 L475,110 L487.5,110 L487.5,125 L505,110 L507.5,110 L507.5,132.5 L522.5,132.5 L537.5,147.5 L537.5,132.5 L550,132.5 L550,92.5 L517.5,92.5 Z M507,102.75 C504.75,104 501.75,104.75 498,105 L497,103 C501.5,102.5 504.75,101.5 507,100 L507,102.75 Z M508.75,92.75 C507.75,90.75 505.5,89.5 502.5,89 C501,92.75 498.25,96.25 495.25,99 C495.5,99.75 495.75,100.25 496.25,100.75 L494,102 C493.75,101.5 493.5,101 493.25,100.25 C490.25,102.25 488,102.75 486.5,102.75 C483.5,102.75 482,100.75 482,98.25 C482,93.5 486,90 491.25,88 L491.25,82.25 L483.25,82.25 L483.25,80 L491.25,80 C491.25,78.5 491.25,76.5 491.5,75 L495,75.25 C495,75.5 494.5,75.75 494,76 C494,77.25 493.75,78.75 493.75,80 C497.75,80 504.5,79.5 508.25,78.5 L508.5,80.75 C504.75,81.75 497.75,82 493.5,82 L493.5,87 C496,86.25 498.25,86.25 499,86.25 L500.5,86.25 C500.75,85.75 500.75,85.25 500.75,84.75 L503.25,85.25 C503.25,85.75 503,86.25 503,86.5 C507.75,87.25 510.25,89.5 511.25,92.25 L508.75,92.25 L508.75,92.75 Z M544.5,127 L532,127 L532,134.5 L524,127 L512,127 L512,97 L544.5,97 L544.5,127 Z" id="Interp_i_Language"></path>
            </g>
        </g>
    </g>
</svg>