<?xml version="1.0" encoding="UTF-8"?>
<svg width="60px" height="61px" viewBox="0 0 60 61" version="1.1" xmlns="http://www.w3.org/2000/svg" xmlns:xlink="http://www.w3.org/1999/xlink">
    <!-- Generator: Sketch 46.2 (44496) - http://www.bohemiancoding.com/sketch -->
    <title>NDOB_i_Cal</title>
    <desc>Created with Sketch.</desc>
    <defs></defs>
    <g id="Page-1" stroke="none" stroke-width="1" fill="none" fill-rule="evenodd">
        <g id="AB_NDOB" transform="translate(-202.000000, -480.000000)" fill="#C23734">
            <g id="NDOB_Body" transform="translate(0.000000, 69.000000)">
                <path d="M250.981024,416.089679 L248.599351,416.089679 L248.599351,414.67287 C248.599351,412.646364 246.956568,411 244.926481,411 C242.899976,411 241.253612,412.646364 241.253612,414.67287 L241.253612,416.086098 L222.746021,416.089691 L222.746021,414.672881 C222.746021,412.646375 221.099657,411.000011 219.073151,411.000011 C217.043064,411.000011 215.400282,412.646375 215.400282,414.672881 L215.400282,416.08611 L213.018609,416.089691 C206.935419,416.089691 202,421.021528 202,427.1083 L202,460.93543 C202,467.018621 206.935419,471.954039 213.018609,471.954039 L250.981391,471.954039 C257.064581,471.954039 262,467.018621 262,460.93543 L262,427.1083 C262,421.021528 257.064581,416.089691 250.981391,416.089691 L250.981024,416.089679 Z M213.722251,423.62549 L216.10025,423.62549 L216.10025,426.875153 L216.096658,426.875153 C216.096658,428.901659 217.743022,430.548023 219.769527,430.548023 C221.799614,430.548023 223.442397,428.901659 223.442397,426.875153 L223.442397,423.62549 L241.942642,423.62549 L241.942642,426.875153 C241.942642,428.901659 243.589006,430.548023 245.615512,430.548023 C247.645599,430.548023 249.288381,428.901659 249.288381,426.875153 L249.288381,423.62549 L251.670054,423.62549 C252.642079,423.62549 253.578202,424.009282 254.266865,424.701549 C254.955528,425.390212 255.342924,426.322753 255.342924,427.298359 L255.342924,434.73739 L210.034403,434.733797 L210.034403,427.294767 L210.034403,427.298359 C210.034403,425.268273 211.680766,423.62549 213.707272,423.62549 L213.722251,423.62549 Z M251.670054,464.708374 L213.707272,464.708374 C211.680766,464.708374 210.034403,463.06201 210.034403,461.035504 L210.034403,441.989838 L255.342924,441.989838 L255.342924,461.035504 C255.342924,462.007529 254.955551,462.943652 254.266865,463.632315 C253.578179,464.320978 252.642079,464.708374 251.670054,464.708374 Z" id="NDOB_i_Cal"></path>
            </g>
        </g>
    </g>
</svg>