<?xml version="1.0" encoding="UTF-8"?>
<svg width="60px" height="55px" viewBox="0 0 60 55" version="1.1" xmlns="http://www.w3.org/2000/svg" xmlns:xlink="http://www.w3.org/1999/xlink">
    <!-- Generator: Sketch 46.2 (44496) - http://www.bohemiancoding.com/sketch -->
    <title>ReadSpeak_i_Read</title>
    <desc>Created with Sketch.</desc>
    <defs></defs>
    <g id="Page-1" stroke="none" stroke-width="1" fill="none" fill-rule="evenodd">
        <g id="AB_ReadSpeak" transform="translate(-202.000000, -246.000000)" fill-rule="nonzero" fill="#CA3A3C">
            <g id="ReadSpeak_Body" transform="translate(0.000000, 61.000000)">
                <path d="M260.169562,186.771756 C255.452758,184.940697 250.306455,184.518323 245.352714,185.555946 C240.401535,186.593569 235.855856,189.04469 232.268988,192.614058 C228.631307,188.89094 223.934003,186.38357 218.819012,185.429071 C213.701834,184.474511 208.415906,185.121453 203.682165,187.282068 C202.664104,187.738611 202.004918,188.749378 202.000043,189.865063 L202.000043,232.664986 C201.99516,233.512172 202.410198,234.310483 203.105978,234.796357 C203.801789,235.282193 204.690475,235.396943 205.486349,235.101531 C213.147585,232.298786 221.690069,233.363284 228.430682,237.957963 C229.580555,238.739212 230.940428,239.154274 232.33205,239.151836 C233.689485,239.154278 235.017608,238.753887 236.150418,238.001963 C242.769156,233.556159 251.052891,232.376974 258.650377,234.796407 C258.899402,234.874532 259.16307,234.916038 259.424313,234.913594 C260.852561,234.901387 262.002434,233.736846 261.999996,232.308599 L261.999996,189.408052 C261.992672,188.233741 261.265122,187.186368 260.168937,186.771306 L260.169562,186.771756 Z M228.25087,200.114232 L228.25087,229.232929 C222.415943,226.464372 215.894642,225.478061 209.500904,226.395997 L209.500904,193.127307 C212.562398,192.294809 215.789643,192.294809 218.851512,193.127307 C221.913006,193.959806 224.696251,195.595553 226.912747,197.866049 C227.42544,198.481285 227.874683,199.150234 228.25062,199.858233 L228.25062,200.114582 L228.25087,200.114232 Z" id="ReadSpeak_i_Read"></path>
            </g>
        </g>
    </g>
</svg>