<?xml version="1.0" encoding="UTF-8"?>
<svg width="54px" height="60px" viewBox="0 0 54 60" version="1.1" xmlns="http://www.w3.org/2000/svg" xmlns:xlink="http://www.w3.org/1999/xlink">
    <!-- Generator: Sketch 46.2 (44496) - http://www.bohemiancoding.com/sketch -->
    <title>ReadSpeak_i_Speak</title>
    <desc>Created with Sketch.</desc>
    <defs></defs>
    <g id="Page-1" stroke="none" stroke-width="1" fill="none" fill-rule="evenodd">
        <g id="AB_ReadSpeak" transform="translate(-205.000000, -480.000000)" fill-rule="nonzero" fill="#CA3A3C">
            <g id="ReadSpeak_Body" transform="translate(0.000000, 61.000000)">
                <path d="M241.178371,430.777256 L242.615068,428.011622 C244.724424,429.436619 245.985382,431.806134 245.985382,434.348809 C245.985382,436.856624 244.752564,439.20976 242.687728,440.636797 L241.218211,437.892282 C242.383049,437.086004 243.076827,435.761806 243.076827,434.348569 C243.076827,432.914212 242.366669,431.580595 241.178371,430.776716 L241.178371,430.777256 Z M247.928358,426.066306 L246.489321,428.83428 C248.329157,430.076458 249.426015,432.141294 249.426015,434.356129 C249.426015,436.542825 248.352557,438.591281 246.55256,439.835798 L248.022078,442.580313 C250.722072,440.709997 252.334569,437.635003 252.334569,434.353729 C252.334569,431.030276 250.686912,427.929542 247.928298,426.066546 L247.928358,426.066306 Z M243.322887,448.507461 C246.252561,451.451175 247.865058,455.370247 247.865058,459.544439 L247.862714,479 L205,479 L205,459.544439 C205,455.374927 206.624197,451.454055 209.572651,448.505661 C212.214026,445.866626 215.633839,444.289289 219.315431,443.98695 C215.481079,441.603335 212.926644,437.353963 212.926644,432.507173 C212.926644,425.046788 218.973432,419 226.431417,419 C233.889402,419 239.93859,425.046788 239.93859,432.507173 C239.93859,437.351683 237.386255,441.600755 233.554003,443.98455 C237.252455,444.272831 240.681389,445.854866 243.322583,448.508001 L243.322887,448.507461 Z M226.431721,443.88795 C232.719708,443.88795 237.815498,438.79264 237.815498,432.504173 C237.817842,426.217986 232.720188,421.120396 226.431721,421.120396 C220.145533,421.120396 215.047944,426.218046 215.047944,432.506573 C215.047944,438.79276 220.145593,443.88795 226.431721,443.88795 Z M245.709082,459.544319 C245.709082,452.109734 239.737234,446.086346 232.302709,446.086346 L220.614732,446.086346 C213.180147,446.086346 207.156759,452.109734 207.156759,459.544319 L207.156759,476.845884 L214.792944,476.845884 L214.7906,458.590321 L217.131975,458.590321 L217.131975,476.845884 L235.729538,476.845884 C235.731882,476.845884 235.731882,458.590321 235.731882,458.590321 L238.073257,458.590321 L238.073257,476.845884 L245.709442,476.845884 L245.709082,459.544319 Z M253.092067,423.570191 L251.65303,426.335825 C254.327225,428.142842 255.923342,431.142836 255.923342,434.365609 C255.923342,437.543743 254.360045,440.520397 251.74447,442.331793 L253.213987,445.076308 C256.72962,442.641153 258.829616,438.638321 258.829616,434.363329 C258.83196,430.034458 256.6851,425.998746 253.092127,423.570551 L253.092067,423.570191 Z" id="ReadSpeak_i_Speak"></path>
            </g>
        </g>
    </g>
</svg>