<?xml version="1.0" encoding="UTF-8"?>
<svg width="138px" height="138px" viewBox="0 0 138 138" version="1.1" xmlns="http://www.w3.org/2000/svg" xmlns:xlink="http://www.w3.org/1999/xlink">
    <!-- Generator: Sketch 46.2 (44496) - http://www.bohemiancoding.com/sketch -->
    <title>Logo</title>
    <desc>Created with Sketch.</desc>
    <defs></defs>
    <g id="Page-1" stroke="none" stroke-width="1" fill="none" fill-rule="evenodd">
        <g id="B_Splash" transform="translate(-442.000000, -80.000000)" fill="#C23734">
            <path d="M559.790281,100.209727 C532.844136,73.2634244 489.155852,73.2634244 462.209707,100.209727 C435.263431,127.155859 435.263431,170.844152 462.209707,197.790296 C489.155852,224.736568 532.844136,224.736568 559.790281,197.790296 C586.736573,170.844152 586.736573,127.155859 559.790281,100.209727 L559.790281,100.209727 Z M479.33387,103 L543.66613,103 C551.279636,103 558,109.200089 558,116.832151 L558,181.321195 C558,188.953269 551.279636,195 543.66613,195 L479.33387,195 C471.720364,195 465,188.953269 465,181.321195 L465,116.832151 C465,109.200089 471.720364,103.013064 479.33387,103.013064 L479.33387,103 Z" id="Logo"></path>
        </g>
    </g>
</svg>