<?xml version="1.0" encoding="UTF-8"?>
<svg width="138px" height="138px" viewBox="0 0 138 138" version="1.1" xmlns="http://www.w3.org/2000/svg" xmlns:xlink="http://www.w3.org/1999/xlink">
    <!-- Generator: Sketch 46.2 (44496) - http://www.bohemiancoding.com/sketch -->
    <title>Splash_i_Logo</title>
    <desc>Created with Sketch.</desc>
    <defs></defs>
    <g id="Page-1" stroke="none" stroke-width="1" fill="none" fill-rule="evenodd">
        <g id="AB_Splash" transform="translate(-442.000000, -80.000000)" fill="#C23734">
            <g id="Splash_Body" transform="translate(0.000000, 69.000000)">
                <path d="M559.790281,31.2097269 C532.844136,4.26342436 489.155852,4.26342436 462.209707,31.2097269 C435.263431,58.1558587 435.263431,101.844152 462.209707,128.790296 C489.155852,155.736568 532.844136,155.736568 559.790281,128.790296 C586.736573,101.844152 586.736573,58.1558587 559.790281,31.2097269 L559.790281,31.2097269 Z M479.33387,34 L543.66613,34 C551.279636,34 558,40.2000885 558,47.8321509 L558,112.321195 C558,119.953269 551.279636,126 543.66613,126 L479.33387,126 C471.720364,126 465,119.953269 465,112.321195 L465,47.8321509 C465,40.2000885 471.720364,34.013064 479.33387,34.013064 L479.33387,34 Z" id="Splash_i_Logo"></path>
            </g>
        </g>
    </g>
</svg>